<svg
  fill="#000"
  height="800px"
  width="800px"
  version="1.1"
  id="Layer_1"
  xmlns="http://www.w3.org/2000/svg"
  xmlns:xlink="http://www.w3.org/1999/xlink"
  viewBox="0 0 512.001 512.001"
  xml:space="preserve"
>
  <g>
    <g>
      <path
        d="M489.371,21.731c-12.173,4.038-112.262,37.77-153.011,68.562c-52.018-19.798-109.342-19.564-160.721,0
			C134.889,59.501,34.801,25.768,22.628,21.731C10.48,17.697-1.668,27.913,0.189,40.562c6.506,44.303,22.818,136.17,47.658,173.094
			c-11.51,27.284-17.75,57.044-17.75,87.806c0,5.131,2.29,9.993,6.244,13.263L245.039,487.22c6.363,5.258,15.561,5.258,21.924,0
			l208.698-172.495c3.954-3.269,6.244-8.132,6.244-13.263c0-30.763-6.24-60.523-17.751-87.806
			c24.916-37.037,41.226-129.292,47.658-173.094C513.673,27.872,501.478,17.713,489.371,21.731z M394.396,169.124
			C328.746,200.647,280.166,246.09,256,298.192c-24.166-52.102-72.746-97.545-138.395-129.068
			C192.87,90.446,318.697,89.993,394.396,169.124z M38.736,63.802c34.23,12.487,75.224,29.326,100.896,43.978
			c-28.854,17.338-53.548,41.003-72.192,69.213C57.391,152.643,47.077,112.251,38.736,63.802z M255.999,451.633L64.673,293.497
			c1.45-35.045,12.46-68.284,30.948-96.645c63.389,28.785,109.525,70.923,130.514,118.806h-6.431
			c-14.701,0-22.648,17.339-13.006,28.472l36.295,41.901c6.863,7.925,19.162,7.908,26.011,0l36.294-41.901
			c9.617-11.103,1.731-28.472-13.006-28.472h-6.429c20.988-47.883,67.125-90.022,130.516-118.807
			c18.489,28.359,29.496,61.6,30.946,96.646L255.999,451.633z M444.56,176.993c-18.542-28.057-43.221-51.803-72.193-69.212
			c25.672-14.652,66.667-31.491,100.898-43.978C464.922,112.253,454.61,152.642,444.56,176.993z"
      />
    </g>
  </g>
  <g>
    <g>
      <circle cx="137.387" cy="260.997" r="22.762" />
    </g>
  </g>
  <g>
    <g>
      <circle cx="375.316" cy="260.997" r="22.762" />
    </g>
  </g>
</svg>
