<svg
  xmlns="http://www.w3.org/2000/svg"
  xml:space="preserve"
  width="800"
  height="800"
  fill="#fff"
  viewBox="0 0 512.001 512.001"
>
  <path
    d="M493.352 274.138c-21.598-14.215-36.29-38.338-51.847-63.876a2288.323 2288.323 0 0 0-5.51-9.013c29.609-83.63-10.549-150.865-12.323-153.764L412.971 29.99l-69.42 80.685C318.524 99.745 289.559 94.381 256 94.381c-33.558 0-62.524 5.365-87.551 16.294L99.028 29.989 88.327 47.484c-1.772 2.899-41.932 70.136-12.323 153.764-1.852 3.01-3.685 6.017-5.51 9.013-15.556 25.539-30.25 49.661-51.847 63.876L0 286.412l18.454 12.562c1.268.864 127.147 86.651 155.859 115.362 9.083 9.084 16.313 18.508 23.307 27.622 15.804 20.598 30.732 40.055 58.38 40.055s42.576-19.457 58.38-40.055c6.993-9.114 14.223-18.538 23.307-27.622 28.711-28.711 154.59-114.499 155.859-115.362l18.455-12.562-18.649-12.274zM407.028 82.722c6.81 18.818 13.961 49.63 7.011 85.664-9.669-12.842-20.708-25.077-34.299-35.921a161.315 161.315 0 0 0-9.479-7.011l36.767-42.732zm-307.98 20.434a166.27 166.27 0 0 1 5.942-20.413l36.749 42.713a161.729 161.729 0 0 0-9.478 7.01c-13.61 10.858-24.661 23.113-34.34 35.974-4.161-21.352-3.794-43.208 1.127-65.284zm110.809 306.031c-4.328-5.253-9.07-10.645-14.411-15.986-22.781-22.781-97.111-75.309-136.052-102.33 22.472-6.78 57.442-14.753 97.637-14.753 11.866 0 21.27 3.778 28.75 11.549 23.393 24.305 25.043 80.66 24.076 121.52zM256 452.125c-6.48 0-11.774-2.688-17.411-7.938.096-3.785.263-8.18.448-13.013l.132-3.466h33.663l.132 3.466c.184 4.833.352 9.228.448 13.013-5.638 5.249-10.932 7.938-17.412 7.938zm16.043-54.303h-32.085c.405-45.309-3.781-100.892-32.643-130.88-13.227-13.743-30.144-20.711-50.283-20.711-30.219 0-57.585 4.068-79.741 9.033 6.617-9.587 12.714-19.578 18.729-29.454 15.262-25.056 31.044-50.964 54.881-69.982 26.62-21.237 60.998-31.561 105.1-31.561s78.48 10.323 105.1 31.561c23.837 19.018 39.619 44.927 54.881 69.982 6.015 9.875 12.112 19.867 18.729 29.454-22.156-4.965-49.522-9.033-79.741-9.033-20.138 0-37.056 6.968-50.283 20.711-28.864 29.987-33.049 85.57-32.644 130.88zm44.511-4.62c-5.341 5.341-10.082 10.733-14.412 15.986-.967-40.86.683-97.216 24.076-121.52 7.48-7.772 16.883-11.549 28.75-11.549 40.032 0 75.067 7.99 97.603 14.776-38.95 27.028-113.243 79.532-136.017 102.307z"
  />
  <path
    d="M362.024 292.285c-9.443 0-17.105 7.753-17.105 17.319 0 9.565 7.66 17.319 17.105 17.319 9.432 0 17.093-7.754 17.093-17.319 0-9.566-7.66-17.319-17.093-17.319zM149.987 292.285c-9.443 0-17.105 7.753-17.105 17.319 0 9.565 7.66 17.319 17.105 17.319 9.432 0 17.093-7.754 17.093-17.319-.001-9.566-7.661-17.319-17.093-17.319z"
  />
</svg>
